<?xml version="1.0" encoding="UTF-8" standalone="no"?>
<!-- Created with Inkscape (http://www.inkscape.org/) -->

<svg
   xmlns:dc="http://purl.org/dc/elements/1.1/"
   xmlns:cc="http://creativecommons.org/ns#"
   xmlns:rdf="http://www.w3.org/1999/02/22-rdf-syntax-ns#"
   xmlns:svg="http://www.w3.org/2000/svg"
   xmlns="http://www.w3.org/2000/svg"
   xmlns:sodipodi="http://sodipodi.sourceforge.net/DTD/sodipodi-0.dtd"
   xmlns:inkscape="http://www.inkscape.org/namespaces/inkscape"
   width="500mm"
   height="645mm"
   viewBox="0 0 500 645"
   version="1.1"
   id="svg8"
   inkscape:version="0.92.4 (5da689c313, 2019-01-14)"
   sodipodi:docname="emoji_triste.svg">
  <defs
     id="defs2" />
  <sodipodi:namedview
     id="base"
     pagecolor="#ffffff"
     bordercolor="#666666"
     borderopacity="1.0"
     inkscape:pageopacity="0.0"
     inkscape:pageshadow="2"
     inkscape:zoom="0.175"
     inkscape:cx="506.2623"
     inkscape:cy="1092.8725"
     inkscape:document-units="mm"
     inkscape:current-layer="layer1"
     showgrid="false"
     inkscape:window-width="1366"
     inkscape:window-height="745"
     inkscape:window-x="-8"
     inkscape:window-y="-8"
     inkscape:window-maximized="1" />
  <metadata
     id="metadata5">
    <rdf:RDF>
      <cc:Work
         rdf:about="">
        <dc:format>image/svg+xml</dc:format>
        <dc:type
           rdf:resource="http://purl.org/dc/dcmitype/StillImage" />
        <dc:title></dc:title>
      </cc:Work>
    </rdf:RDF>
  </metadata>
  <g
     inkscape:label="Camada 1"
     inkscape:groupmode="layer"
     id="layer1"
     transform="translate(0,348)">
    <flowRoot
       xml:space="preserve"
       id="flowRoot816"
       style="font-style:normal;font-variant:normal;font-weight:bold;font-stretch:normal;font-size:40px;line-height:1.25;font-family:sans-serif;-inkscape-font-specification:'sans-serif Bold';letter-spacing:0px;word-spacing:0px;fill:#000000;fill-opacity:1;stroke:none"
       transform="matrix(0.26458333,0,0,0.26458333,0,-348)"><flowRegion
         id="flowRegion818"
         style="font-style:normal;font-variant:normal;font-weight:bold;font-stretch:normal;font-family:sans-serif;-inkscape-font-specification:'sans-serif Bold'"><rect
           id="rect820"
           width="3040"
           height="2491.4285"
           x="-1485.7142"
           y="-7.9190102"
           style="font-style:normal;font-variant:normal;font-weight:bold;font-stretch:normal;font-family:sans-serif;-inkscape-font-specification:'sans-serif Bold'" /></flowRegion><flowPara
         id="flowPara822"></flowPara></flowRoot>    <path
       style="font-style:normal;font-variant:normal;font-weight:bold;font-stretch:normal;font-size:40px;line-height:1.25;font-family:sans-serif;-inkscape-font-specification:'sans-serif Bold';letter-spacing:0px;word-spacing:0px;fill:#151323;fill-opacity:1;stroke:none;stroke-width:63.0021019"
       d="M 1428.9336 0 C 1272.4719 185.80752 1156.3484 376.98217 1080.5625 573.52539 C 1005.5902 770.06863 968.10352 985.19398 968.10352 1218.8984 C 968.10352 1452.6033 1005.5902 1667.7267 1080.5625 1864.2695 C 1156.3484 2060.8128 1272.4719 2251.9874 1428.9336 2437.7949 L 1889.7637 2437.7949 L 1889.7637 2401.873 C 1824.5713 2343.2404 1761.008 2273.8712 1699.0742 2193.7676 C 1637.9582 2114.4897 1582.952 2026.1294 1534.0566 1928.6836 C 1483.5341 1826.2828 1443.1963 1717.688 1413.043 1602.9004 C 1383.7074 1488.1128 1369.041 1360.1125 1369.041 1218.8984 C 1369.041 1083.4656 1384.1146 955.87736 1414.2637 836.13477 C 1445.2306 716.39215 1485.1613 607.3849 1534.0566 509.11328 C 1585.3969 406.71247 1640.8119 317.52523 1700.3008 241.55078 C 1760.6032 164.75015 1823.7577 96.207998 1889.7637 35.923828 L 1889.7637 0 L 1428.9336 0 z M 0 536.36523 L 0 1023.1816 L 457.16211 1023.1816 L 457.16211 536.36523 L 0 536.36523 z M 0 1440.6289 L 0 1927.4434 L 457.16211 1927.4434 L 457.16211 1440.6289 L 0 1440.6289 z "
       transform="matrix(0.26458333,0,0,0.26458333,0,-348)"
       id="path840" />
  </g>
</svg>
